<?xml version="1.0" encoding="UTF-8" standalone="no"?>
<!-- Created with Inkscape (http://www.inkscape.org/) -->

<svg
   width="159.87183mm"
   height="143.60025mm"
   viewBox="0 0 159.87183 143.60025"
   version="1.1"
   id="svg30294"
   inkscape:version="1.2.2 (732a01da63, 2022-12-09)"
   sodipodi:docname="NBAtlas_Logo_Noah_v1.svg"
   xmlns:inkscape="http://www.inkscape.org/namespaces/inkscape"
   xmlns:sodipodi="http://sodipodi.sourceforge.net/DTD/sodipodi-0.dtd"
   xmlns="http://www.w3.org/2000/svg"
   xmlns:svg="http://www.w3.org/2000/svg">
  <sodipodi:namedview
     id="namedview30296"
     pagecolor="#ffffff"
     bordercolor="#000000"
     borderopacity="0.25"
     inkscape:showpageshadow="2"
     inkscape:pageopacity="0.0"
     inkscape:pagecheckerboard="0"
     inkscape:deskcolor="#d1d1d1"
     inkscape:document-units="mm"
     showgrid="false"
     inkscape:zoom="0.70199214"
     inkscape:cx="168.80531"
     inkscape:cy="412.39778"
     inkscape:window-width="1920"
     inkscape:window-height="986"
     inkscape:window-x="-11"
     inkscape:window-y="-11"
     inkscape:window-maximized="1"
     inkscape:current-layer="layer1" />
  <defs
     id="defs30291" />
  <g
     inkscape:label="Layer 1"
     inkscape:groupmode="layer"
     id="layer1"
     transform="translate(-48.243655,-28.267767)">
    <g
       id="g53171"
       transform="translate(21.326495,-77.642136)">
      <path
         style="fill:#03bb39;fill-opacity:1;stroke:#00ba37;stroke-width:1;stroke-linecap:square;stroke-opacity:0.988235"
         d="m 141.52728,109.86738 c 20.29553,6.90271 40.26636,37.75268 20.7297,57.28934 -2.80853,2.80854 -7.0526,4.03738 -9.79949,6.78427 -2.99307,2.99306 2.73508,8.00666 -0.37691,11.11865 -6.73363,6.73363 -15.85192,1.37615 -23.36802,2.44988 -4.1359,0.59084 -7.34523,6.47163 -11.49556,5.08819 -0.89522,-0.29841 -1.22866,-8.08266 -3.01523,-9.42259 -2.21995,-1.66497 -16.342659,-8.26977 -16.960655,-10.74175 -1.364972,-5.45989 0.737767,-20.71365 4.899745,-24.87563 7.54668,-7.54667 -2.04798,-27.96201 19.22208,-35.05203 6.7708,-2.25693 12.85387,-4.32536 20.16434,-2.63833 z"
         id="path30493" />
      <path
         style="fill:#c278ff;fill-opacity:1;stroke:#c278ff;stroke-width:1;stroke-linecap:square;stroke-opacity:1"
         d="m 136.43909,198.06282 c 4.13839,0.4497 3.1621,2.32515 4.14593,5.27664 4.10282,12.30847 -13.87621,5.32666 -9.79949,-2.82677 1.14678,-2.29355 2.95235,-2.44987 5.65356,-2.44987 z"
         id="path30495" />
      <path
         style="fill:#b39900;fill-opacity:1;stroke:#b39900;stroke-width:1;stroke-linecap:square;stroke-opacity:1"
         d="m 166.02601,193.30505 c 14.94762,9.20189 6.53924,17.00713 -8.10342,17.00713 -2.26838,0 -4.96528,10.67622 -6.40736,9.23414 -12.24488,-12.24488 -3.96054,-30.47953 14.51078,-26.24127 z"
         id="path30497" />
      <path
         style="fill:#78aa00;fill-opacity:1;stroke:#78aa00;stroke-width:1;stroke-linecap:square;stroke-opacity:1"
         d="m 139.45201,225.93747 c -0.98478,19.94059 -10.28271,11.77937 -18.4069,11.77937 -4.97357,0 -8.17502,7.94633 -12.5167,-0.73622 -1.8226,-3.64489 2.59998,-8.60446 1.47256,-10.8591 -1.8096,-3.61887 -9.39588,0.90356 -10.123797,-0.55215 -1.738123,-3.47593 20.789797,-17.98862 23.928977,-18.77335 4.70454,-1.17603 10.51107,7.05138 11.96449,11.41125 0.48366,1.45087 -4.46665,6.50937 -3.12917,7.17805 2.19267,1.09624 4.61195,0.55215 6.81054,0.55215 z"
         id="path30499" />
      <path
         style="fill:#00c1c4;fill-opacity:1;stroke:#00c1c4;stroke-width:1;stroke-linecap:square;stroke-opacity:1"
         d="m 97.277305,241.0047 c 7.392725,10.35028 -11.93151,3.30631 0,0 z"
         id="path30503" />
      <path
         style="fill:#00b4ef;fill-opacity:1;stroke:#00b4ef;stroke-width:1;stroke-linecap:square;stroke-opacity:1"
         d="m 92.479335,229.96573 c 2.551102,2.94023 -3.057107,7.87537 -3.831095,3.23144 -0.320625,-1.92375 2.195057,-5.27649 3.831095,-3.23144 z"
         id="path30505" />
      <path
         style="fill:#f47167;fill-opacity:1;stroke:#f47167;stroke-width:1;stroke-linecap:square;stroke-opacity:1"
         d="m 86.08307,220.18028 c -0.681672,5.59179 -1.116999,7.5789 -6.129753,10.08527 -8.551277,4.27564 -8.743444,-2.77501 -11.726486,-7.99533 -2.25016,-3.93778 -7.075305,-6.62449 -5.196967,-12.25951 0.819875,-2.45962 4.429244,6.98001 5.863243,6.26301 3.497392,-1.74869 5.189553,-4.88356 8.928121,-6.12975 4.193958,-1.39799 16.965425,8.08661 15.457641,9.5944 -2.710225,2.71022 -5.689423,-3.81974 -7.195799,0.44191 z"
         id="path30507" />
      <path
         style="fill:#f462e0;fill-opacity:1;stroke:#f462e0;stroke-width:1;stroke-linecap:square;stroke-opacity:1"
         d="m 87.282371,183.0931 c -1.881127,0.96934 -3.966496,2.33625 -4.930455,4.26417 -7.70894,15.41788 24.646694,-9.19323 4.930455,-4.26417 z"
         id="path30509" />
      <path
         style="fill:#dc8d00;fill-opacity:1;stroke:#dc8d00;stroke-width:1;stroke-linecap:square;stroke-opacity:1"
         d="m 107.60384,194.02005 c 3.44732,3.44673 4.78931,7.10198 3.86441,11.72649 -2.43633,12.18162 -22.456869,0.94934 -21.187629,-5.39685 1.060421,-5.30211 13.739479,-11.44927 17.323219,-6.32964 z"
         id="path30515" />
      <path
         style="fill:#00bc85;fill-opacity:1;stroke:#00bc85;stroke-width:1;stroke-linecap:square;stroke-opacity:1"
         d="m 84.750515,142.11702 c 0.412837,1.93673 2.445972,2.93009 2.731738,4.93045 0.438748,3.07124 -1.731719,4.3284 -2.398599,6.99592 -0.40704,1.62816 4.7205,11.99971 -0.06663,15.19113 -4.678611,3.11907 -13.058375,-8.59898 -12.326136,-12.99241 0.469167,-2.81501 9.206257,-18.88071 12.059624,-14.12509 z"
         id="path48380" />
      <path
         style="fill:#ff63ae;fill-opacity:1;stroke:#ff63ae;stroke-width:1;stroke-linecap:square;stroke-opacity:1"
         d="m 81.194581,137.19289 c -4.322839,5.15433 -7.152722,13.32523 -10.430939,19.88166 -3.762597,7.5252 12.665948,12.13033 10.08217,19.88167 -2.743512,8.23053 -8.436131,-3.85326 -10.741752,-3.39214 -3.472961,0.6946 -5.570911,6.26892 -7.255394,6.69004 -6.513496,1.62838 -16.036176,1.07471 -21.577728,-1.69606 -3.434172,-1.71709 -1.133266,-12.70517 -0.65958,-15.54728 1.341078,-8.04647 -4.747561,-10.11131 -5.653553,-15.54727 -0.530804,-3.18482 5.174665,-3.91359 7.349617,-5.65355 2.713382,-2.1707 2.889639,-5.54364 6.501588,-7.34962 2.738914,-1.36946 6.18717,-1.01549 9.139912,-1.50761 5.785913,-0.96432 15.204683,-7.35384 21.766178,0.84803 1.184156,1.48019 2.247032,1.79868 1.479481,3.39213 z"
         id="path49393" />
    </g>
    <text
       xml:space="preserve"
       style="font-style:italic;font-variant:normal;font-weight:normal;font-stretch:normal;font-size:22.5778px;font-family:'Cooper Black';-inkscape-font-specification:'Cooper Black,  Italic';text-align:center;text-anchor:middle;fill:#000000;fill-opacity:1;stroke:none;stroke-width:1;stroke-linecap:square;stroke-opacity:1"
       x="125.85096"
       y="107.7616"
       id="text53106"><tspan
         sodipodi:role="line"
         id="tspan53104"
         style="font-style:italic;font-variant:normal;font-weight:normal;font-stretch:normal;font-size:22.5778px;font-family:'Cooper Black';-inkscape-font-specification:'Cooper Black,  Italic';fill:#000000;stroke:none;stroke-width:1"
         x="125.85096"
         y="107.7616">NBAtlas</tspan></text>
  </g>
</svg>
